<?xml version="1.0" standalone="no"?>
<!DOCTYPE svg PUBLIC "-//W3C//DTD SVG 20010904//EN"
 "http://www.w3.org/TR/2001/REC-SVG-20010904/DTD/svg10.dtd">
<svg version="1.0" xmlns="http://www.w3.org/2000/svg"
 width="230.000000pt" height="230.000000pt" viewBox="0 0 230.000000 230.000000"
 preserveAspectRatio="xMidYMid meet">
<metadata>
Created by potrace 1.11, written by Peter Selinger 2001-2013
</metadata>
<g transform="translate(0.000000,230.000000) scale(0.100000,-0.100000)"
fill="#000000" stroke="none">
<path d="M60 1150 l0 -1150 1095 0 1095 0 0 1150 0 1150 -1095 0 -1095 0 0
-1150z m490 865 c0 -20 -5 -25 -25 -25 -14 0 -25 5 -25 11 0 5 4 8 9 4 5 -3
12 4 16 15 9 28 25 25 25 -5z m1258 0 c2 -18 -3 -21 -43 -23 -41 -1 -45 0 -45
22 0 21 4 23 43 22 34 -1 43 -5 45 -21z m-608 -3 c9 -16 9 -16 10 1 0 11 8 17
25 17 18 0 25 -5 25 -20 0 -22 -2 -22 -98 -22 -67 0 -77 3 -69 25 8 21 94 20
107 -1z m-400 -202 c6 9 13 11 18 5 4 -5 16 -15 27 -21 13 -7 21 -23 22 -45 1
-34 1 -34 -5 -4 -10 42 -42 47 -42 6 0 -17 -4 -31 -10 -31 -5 0 -10 17 -10 37
0 43 -16 34 -23 -12 -4 -27 -4 -26 -6 8 0 20 -6 37 -11 37 -6 0 -5 6 2 14 9
10 15 11 21 2 5 -8 10 -7 17 4z m149 -24 c15 -17 -2 -66 -23 -66 -18 0 -46 27
-46 44 0 32 48 48 69 22z m241 -73 c8 -3 30 -5 48 -4 17 2 32 -2 32 -7 0 -5
12 -9 28 -10 15 0 45 -5 68 -10 22 -5 55 -7 72 -4 18 2 39 -1 47 -8 18 -15 20
-50 3 -51 -10 0 -10 -2 0 -6 22 -8 -7 -33 -39 -33 -30 0 -61 33 -52 56 3 8 0
14 -6 14 -6 0 -11 -16 -11 -35 0 -24 -5 -35 -15 -35 -9 0 -15 9 -15 22 l0 22
-16 -22 c-12 -17 -25 -22 -59 -22 -38 0 -43 2 -38 20 3 11 0 20 -6 20 -6 0
-10 -5 -9 -12 2 -6 -8 -17 -22 -24 -32 -17 -62 1 -72 42 -7 27 -7 27 -4 -5 2
-26 -1 -35 -16 -39 -17 -4 -19 -13 -17 -60 2 -45 0 -56 -14 -58 -9 -1 -17 4
-17 12 0 8 4 14 8 14 12 0 13 48 2 55 -6 4 -4 12 5 21 20 21 20 84 0 84 -10 0
-15 -10 -15 -34 0 -25 -5 -35 -20 -39 -11 -3 -23 0 -27 5 -3 7 -1 8 5 4 7 -4
12 -1 12 8 0 9 -4 16 -10 16 -5 0 -10 5 -10 11 0 5 5 7 10 4 6 -3 10 1 10 9 0
9 -7 16 -15 16 -10 0 -15 -11 -15 -35 0 -24 -5 -35 -15 -35 -8 0 -15 8 -15 17
0 15 -1 15 -12 1 -16 -20 -36 -24 -65 -14 -31 10 -38 42 -18 73 16 23 16 25 1
20 -9 -4 -16 -3 -16 2 0 11 81 33 145 38 28 3 51 6 52 7 5 4 117 -5 133 -11z
m-400 -17 c0 -9 12 -16 33 -18 17 -2 31 -6 30 -10 -2 -5 -3 -26 -3 -48 0 -29
-4 -40 -15 -40 -10 0 -15 11 -15 35 0 24 -5 35 -15 35 -10 0 -15 -11 -15 -35
0 -24 -5 -35 -15 -35 -10 0 -15 10 -15 30 0 37 -21 32 -36 -8 -14 -37 -70 -78
-77 -58 -4 9 6 20 26 30 18 8 25 16 17 16 -8 0 -27 -7 -42 -14 -23 -12 -28
-12 -28 -1 0 7 6 16 13 19 6 3 -18 4 -55 2 -38 -2 -68 0 -68 5 0 5 21 9 47 9
26 0 82 9 125 21 74 20 78 22 78 50 0 19 5 29 15 29 8 0 15 -6 15 -14z m744
-33 c6 -14 8 -14 21 3 13 19 14 19 29 -1 13 -19 15 -19 21 -2 8 20 25 23 25 4
0 -10 14 -13 53 -10 60 3 53 -3 -15 -12 -40 -5 -48 -10 -57 -35 -12 -36 -27
-38 -37 -7 l-7 22 -10 -22 c-15 -33 -23 -28 -41 24 -19 56 -19 53 -2 53 8 0
17 -7 20 -17z m-130 -101 c2 -4 -5 -9 -17 -9 -17 -2 -19 0 -7 7 18 12 18 12
24 2z m36 -6 c0 -8 10 -16 23 -18 17 -2 23 -11 25 -35 4 -40 -15 -45 -20 -5
-2 15 -7 25 -13 22 -10 -5 -11 -9 -14 -37 -2 -20 -21 -15 -21 5 0 25 -37 47
-56 31 -11 -9 -12 -15 -3 -25 12 -15 34 -20 25 -6 -3 5 1 9 9 9 20 0 19 -23
-1 -31 -22 -9 -52 10 -57 36 -3 16 -5 12 -6 -11 -1 -39 -17 -32 -23 9 -3 26
-19 31 -27 9 -2 -7 1 -9 8 -4 9 5 9 0 -1 -15 -10 -18 -10 -24 0 -27 6 -3 10
-9 6 -14 -3 -5 -11 -3 -19 5 -10 9 -34 13 -80 11 -67 -2 -95 9 -95 39 0 18 24
37 49 39 12 1 22 6 23 12 0 5 4 -12 8 -40 l7 -50 1 43 c2 49 22 49 22 1 0 -20
4 -29 13 -26 7 2 11 19 11 40 -1 25 2 35 10 30 19 -13 46 -13 46 -1 0 6 8 4
19 -6 14 -13 28 -16 51 -11 19 4 36 2 46 -6 8 -7 14 -8 13 -3 -1 5 -1 17 0 27
1 20 21 23 21 3z m129 -33 c10 -17 10 -17 11 0 0 11 8 17 22 17 17 0 19 -3 10
-12 -7 -7 -12 -22 -12 -35 0 -13 -4 -23 -10 -23 -5 0 -10 7 -10 15 0 10 -10
15 -30 15 -16 0 -30 -5 -30 -11 0 -7 10 -9 25 -5 15 4 25 2 25 -4 0 -20 -64
-7 -68 13 -8 40 47 64 67 30z m-929 -13 c0 -5 -2 -10 -4 -10 -2 0 -12 -3 -22
-7 -16 -6 -17 -5 -4 10 17 19 30 22 30 7z m840 -110 c0 -11 -2 -20 -4 -20 -2
0 -6 9 -9 20 -3 11 -1 20 4 20 5 0 9 -9 9 -20z m30 0 c0 -11 -2 -20 -4 -20 -2
0 -6 9 -9 20 -3 11 -1 20 4 20 5 0 9 -9 9 -20z m40 11 c0 -6 -4 -13 -10 -16
-5 -3 -10 1 -10 9 0 9 5 16 10 16 6 0 10 -4 10 -9z m-42 -63 c-2 -5 -8 -9 -13
-9 -5 0 -11 4 -13 9 -1 5 4 9 13 9 9 0 14 -4 13 -9z m42 -13 c-14 -8 -19 -14
-11 -15 7 0 24 -11 37 -25 13 -14 28 -25 34 -25 5 0 10 -5 10 -11 0 -5 -4 -7
-10 -4 -5 3 -10 0 -10 -8 0 -17 -68 -47 -104 -47 -39 0 -54 10 -49 31 4 14 0
19 -16 19 -17 0 -19 4 -12 22 9 24 54 41 86 32 16 -4 17 -3 5 5 -17 12 -6 26
25 34 36 9 40 6 15 -8z m-760 -35 c0 -24 -5 -40 -12 -40 -6 0 -8 3 -4 7 4 5
-12 13 -36 19 l-43 12 43 1 c44 1 51 20 9 22 -17 1 -15 3 8 9 17 4 31 8 33 9
1 0 2 -17 2 -39z m-243 -2 c-3 -8 -6 -5 -6 6 -1 11 2 17 5 13 3 -3 4 -12 1
-19z m93 5 c0 -9 -14 -13 -40 -13 -27 0 -40 4 -40 14 0 9 12 13 40 13 26 -1
40 -5 40 -14z m1005 -345 c3 -29 7 -147 9 -263 2 -115 5 -214 6 -220 1 -5 2
-42 1 -82 -1 -66 -2 -71 -21 -66 -11 3 -20 0 -20 -6 0 -6 5 -11 11 -11 5 0 7
-6 3 -12 -5 -9 -2 -8 9 1 16 12 17 12 11 -5 -5 -18 -5 -18 10 0 15 19 16 17
16 -26 0 -45 0 -45 -37 -50 -30 -4 -810 -2 -847 1 -5 1 -3 8 4 15 6 8 10 25 7
38 -4 22 -4 21 -6 -3 0 -14 -10 -34 -22 -45 -17 -16 -22 -16 -29 -4 -7 11 -10
12 -10 2 0 -8 -9 -12 -22 -10 -18 2 -24 11 -29 43 l-6 40 -2 -42 c-1 -36 -4
-43 -21 -43 -15 0 -20 7 -21 28 l-1 27 -8 -25 c-9 -25 -6 162 6 562 l6 197 72
3 c39 2 263 4 498 6 l426 3 7 -53z m115 -883 c0 -8 -4 -15 -10 -15 -5 0 -10 7
-10 15 0 8 5 15 10 15 6 0 10 -7 10 -15z m190 5 c0 -5 -4 -10 -10 -10 -5 0
-10 5 -10 10 0 6 5 10 10 10 6 0 10 -4 10 -10z"/>
<path d="M908 1773 c6 -2 18 -2 25 0 6 3 1 5 -13 5 -14 0 -19 -2 -12 -5z"/>
<path d="M908 1738 c9 -9 15 -9 24 0 9 9 7 12 -12 12 -19 0 -21 -3 -12 -12z"/>
<path d="M1021 1699 c-19 -4 -41 -5 -49 -1 -11 4 -13 1 -7 -8 6 -10 3 -12 -14
-7 -22 5 -22 5 -4 -15 14 -16 19 -17 21 -5 3 15 65 30 70 17 1 -4 20 -4 42 0
22 4 37 4 35 -1 -3 -4 0 -11 6 -15 6 -3 14 -2 18 4 3 5 13 11 21 12 39 6 57
-1 67 -27 l11 -28 1 32 c1 31 1 31 -60 38 -33 4 -63 5 -65 2 -3 -3 -18 -2 -32
2 -15 4 -42 4 -61 0z"/>
<path d="M1341 1654 c0 -11 3 -14 6 -6 3 7 2 16 -1 19 -3 4 -6 -2 -5 -13z"/>
<path d="M900 1645 c-10 -12 -10 -18 0 -30 16 -20 34 -19 26 1 -3 8 -2 12 4 9
15 -9 12 11 -4 24 -10 9 -16 8 -26 -4z"/>
<path d="M1170 1650 c-12 -8 -10 -10 8 -10 13 0 20 4 17 10 -7 12 -6 12 -25 0z"/>
<path d="M1276 1653 c-3 -4 -6 -16 -6 -27 1 -21 1 -21 16 -1 16 19 16 19 9 -5
-7 -22 -6 -23 8 -12 9 8 13 20 11 27 -6 16 -29 26 -38 18z"/>
<path d="M1438 1643 c6 -2 18 -2 25 0 6 3 1 5 -13 5 -14 0 -19 -2 -12 -5z"/>
<path d="M1440 1610 c0 -5 5 -10 10 -10 6 0 10 5 10 10 0 6 -4 10 -10 10 -5 0
-10 -4 -10 -10z"/>
<path d="M1168 1603 c7 -3 16 -2 19 1 4 3 -2 6 -13 5 -11 0 -14 -3 -6 -6z"/>
<path d="M1122 1503 c5 -26 38 -29 38 -4 0 15 -6 21 -21 21 -14 0 -19 -5 -17
-17z"/>
<path d="M1525 1520 c-3 -5 3 -10 15 -10 12 0 18 5 15 10 -3 6 -10 10 -15 10
-5 0 -12 -4 -15 -10z"/>
<path d="M710 666 l0 -76 55 0 56 0 -3 73 -3 72 -52 3 -53 3 0 -75z m40 46 c0
-10 -7 -19 -15 -19 -8 0 -15 9 -15 19 0 10 7 18 15 18 8 0 15 -8 15 -18z m17
-4 c-3 -8 -6 -5 -6 6 -1 11 2 17 5 13 3 -3 4 -12 1 -19z m34 8 c5 3 9 0 9 -5
0 -6 -7 -11 -15 -11 -8 0 -15 8 -14 18 0 10 3 12 6 4 2 -6 9 -10 14 -6z m-43
-56 c15 0 15 2 2 11 -13 9 -13 10 0 5 8 -3 23 -9 33 -12 11 -4 17 -17 17 -35
0 -28 -2 -29 -45 -29 -44 0 -45 0 -45 33 0 34 12 57 18 38 2 -6 11 -11 20 -11z"/>
<path d="M1609 615 c-3 -33 -2 -64 3 -69 12 -15 13 -6 8 64 l-5 65 -6 -60z"/>
<path d="M737 513 c-3 -5 3 -15 14 -22 18 -11 20 -10 17 5 -3 19 -23 30 -31
17z"/>
<path d="M1622 427 c-2 -70 -4 -78 -24 -87 -21 -8 -21 -9 -3 -9 36 -1 40 11
34 94 l-5 80 -2 -78z"/>
<path d="M744 471 c-38 -10 -54 -19 -54 -33 0 -7 5 -7 14 1 11 9 15 9 18 0 5
-16 68 10 68 28 0 14 -1 14 -46 4z"/>
<path d="M711 413 c0 -10 4 -27 8 -37 7 -18 8 -18 14 -2 4 10 2 26 -3 37 -13
24 -20 24 -19 2z"/>
<path d="M710 256 c0 -2 7 -7 16 -10 8 -3 12 -2 9 4 -6 10 -25 14 -25 6z"/>
</g>
</svg>
